<mxfile host="app.diagrams.net" agent="Mozilla/5.0 (Windows NT 10.0; Win64; x64) AppleWebKit/537.36 (KHTML, like Gecko) Chrome/140.0.0.0 Safari/537.36 Edg/140.0.0.0" version="28.2.1">
  <diagram name="第 1 页" id="DMPxisfdXsRXzmTre6Gv">
    <mxGraphModel dx="1339" dy="1519" grid="0" gridSize="10" guides="1" tooltips="1" connect="1" arrows="1" fold="1" page="0" pageScale="1" pageWidth="1169" pageHeight="1654" math="0" shadow="0">
      <root>
        <mxCell id="0" />
        <mxCell id="1" parent="0" />
        <mxCell id="3-oV6_wJqUeGKegxItI3-6" value="" style="edgeStyle=none;curved=1;rounded=0;orthogonalLoop=1;jettySize=auto;html=1;fontSize=12;startSize=8;endSize=8;" edge="1" parent="1" source="3-oV6_wJqUeGKegxItI3-1" target="3-oV6_wJqUeGKegxItI3-5">
          <mxGeometry relative="1" as="geometry" />
        </mxCell>
        <mxCell id="3-oV6_wJqUeGKegxItI3-1" value="http 请求，生成 topic 消息" style="rounded=0;whiteSpace=wrap;html=1;" vertex="1" parent="1">
          <mxGeometry x="-318" y="-272" width="120" height="60" as="geometry" />
        </mxCell>
        <mxCell id="3-oV6_wJqUeGKegxItI3-2" value="创建一个实现&amp;nbsp;&lt;span style=&quot;font-family: &amp;quot;JetBrains Mono&amp;quot;, monospace; font-size: 9.8pt; background-color: rgb(30, 31, 34); color: rgb(188, 190, 196);&quot;&gt;BeanPostProcessor&lt;/span&gt;&lt;span style=&quot;background-color: transparent; color: light-dark(rgb(0, 0, 0), rgb(255, 255, 255));&quot;&gt;&amp;nbsp;接口的类，实现&amp;nbsp;&lt;/span&gt;&lt;span style=&quot;color: rgb(86, 168, 245); font-family: &amp;quot;JetBrains Mono&amp;quot;, monospace; font-size: 9.8pt; background-color: rgb(30, 31, 34);&quot;&gt;postProcessAfterInitialization&lt;/span&gt;&lt;span style=&quot;background-color: transparent; color: light-dark(rgb(0, 0, 0), rgb(255, 255, 255));&quot;&gt;&amp;nbsp;方法，它会遍历容器中每个 bean&lt;/span&gt;" style="rounded=0;whiteSpace=wrap;html=1;" vertex="1" parent="1">
          <mxGeometry x="-131" y="-416" width="262" height="62" as="geometry" />
        </mxCell>
        <mxCell id="3-oV6_wJqUeGKegxItI3-4" style="edgeStyle=none;curved=1;rounded=0;orthogonalLoop=1;jettySize=auto;html=1;exitX=1;exitY=0.5;exitDx=0;exitDy=0;entryX=0;entryY=0.5;entryDx=0;entryDy=0;fontSize=12;startSize=8;endSize=8;" edge="1" parent="1" source="3-oV6_wJqUeGKegxItI3-3" target="3-oV6_wJqUeGKegxItI3-2">
          <mxGeometry relative="1" as="geometry" />
        </mxCell>
        <mxCell id="3-oV6_wJqUeGKegxItI3-3" value="项目初始化" style="text;strokeColor=none;fillColor=none;html=1;align=center;verticalAlign=middle;whiteSpace=wrap;rounded=0;fontSize=16;" vertex="1" parent="1">
          <mxGeometry x="-318" y="-401" width="123" height="30" as="geometry" />
        </mxCell>
        <mxCell id="3-oV6_wJqUeGKegxItI3-8" value="" style="edgeStyle=none;curved=1;rounded=0;orthogonalLoop=1;jettySize=auto;html=1;fontSize=12;startSize=8;endSize=8;dashed=1;dashPattern=8 8;" edge="1" parent="1" source="3-oV6_wJqUeGKegxItI3-5" target="3-oV6_wJqUeGKegxItI3-7">
          <mxGeometry relative="1" as="geometry" />
        </mxCell>
        <mxCell id="3-oV6_wJqUeGKegxItI3-5" value="key，value" style="rounded=0;whiteSpace=wrap;html=1;" vertex="1" parent="1">
          <mxGeometry x="-78" y="-272" width="120" height="60" as="geometry" />
        </mxCell>
        <mxCell id="3-oV6_wJqUeGKegxItI3-7" value="被订阅者消费，修改本地变量" style="whiteSpace=wrap;html=1;rounded=0;" vertex="1" parent="1">
          <mxGeometry x="162" y="-272" width="120" height="60" as="geometry" />
        </mxCell>
      </root>
    </mxGraphModel>
  </diagram>
</mxfile>
